<svg xmlns="http://www.w3.org/2000/svg" viewBox="0 0 32 32">
  <rect width="32" height="32" rx="7" fill="#0D9488"/>
  <!-- Mini house roof -->
  <path d="M16 5 L6 14 L8 14 L8 25 C8 25.5 8.5 26 9 26 L23 26 C23.5 26 24 25.5 24 25 L24 14 L26 14 Z" fill="white" opacity="0.95"/>
  <!-- Mini shield -->
  <path d="M16 11 C16 11 12 12.5 12 15.5 C12 18.5 14 20.5 16 21.5 C18 20.5 20 18.5 20 15.5 C20 12.5 16 11 16 11 Z" fill="#0D9488"/>
  <!-- Mini check -->
  <path d="M14 15.5 L15.5 17 L18.5 13.5" stroke="white" stroke-width="1.5" fill="none" stroke-linecap="round" stroke-linejoin="round"/>
</svg>
