<svg xmlns="http://www.w3.org/2000/svg" viewBox="0 0 512 512">
  <!-- Background -->
  <rect width="512" height="512" rx="112" fill="#0D9488"/>
  
  <!-- Subtle gradient overlay -->
  <defs>
    <linearGradient id="g" x1="0" y1="0" x2="1" y2="1">
      <stop offset="0%" stop-color="#14B8A6" stop-opacity="0.4"/>
      <stop offset="100%" stop-color="#0D9488" stop-opacity="0"/>
    </linearGradient>
  </defs>
  <rect width="512" height="512" rx="112" fill="url(#g)"/>
  
  <!-- House roof -->
  <path d="M256 100 L100 230 L140 230 L140 380 C140 391 149 400 160 400 L352 400 C363 400 372 391 372 380 L372 230 L412 230 Z" fill="white" opacity="0.95"/>
  
  <!-- Door -->
  <rect x="218" y="300" width="76" height="100" rx="6" fill="#0D9488" opacity="0.3"/>
  
  <!-- Shield with check -->
  <path d="M256 170 C256 170 200 190 200 240 C200 290 230 320 256 335 C282 320 312 290 312 240 C312 190 256 170 256 170 Z" fill="#0D9488"/>
  <path d="M232 252 L250 270 L280 232" stroke="white" stroke-width="16" fill="none" stroke-linecap="round" stroke-linejoin="round"/>
</svg>
